# Blender v2.77 (sub 0) OBJ File: 'road.blend'
# www.blender.org
mtllib road.mtl
o Cube
v 4.398911 -0.062527 -8.069539
v 4.398911 -0.062527 8.069539
v -4.398911 -0.062527 8.069537
v -4.398908 -0.062527 -8.069542
v 4.398912 0.062527 -8.069535
v 4.398908 0.062527 8.069544
v -4.398912 0.062527 8.069536
v -4.398910 0.062527 -8.069539
vt -0.0162 1.2484
vt -0.0162 -1.3859
vt 0.9551 -1.3859
vt 0.9551 1.2484
vt -0.0162 1.2484
vt -0.9875 1.2484
vt -0.9875 -1.3859
vt -0.0162 -1.3859
vt 0.9651 1.2484
vt 0.9551 1.2484
vt 0.9551 -1.3859
vt 0.9651 -1.3859
vt 0.9852 0.5868
vt 0.9752 0.5868
vt 0.9752 -1.3859
vt 0.9852 -1.3859
vt 0.9752 1.2484
vt 0.9651 1.2484
vt 0.9651 -1.3859
vt 0.9752 -1.3859
vt 0.9852 2.5595
vt 0.9752 2.5595
vt 0.9752 0.5868
vt 0.9852 0.5868
vn 0.0000 -1.0000 0.0000
vn 0.0000 1.0000 0.0000
vn 1.0000 0.0000 0.0000
vn -0.0000 -0.0000 1.0000
vn -1.0000 -0.0000 -0.0000
vn 0.0000 0.0000 -1.0000
usemtl Material3
s off
f 1/1/1 2/2/1 3/3/1 4/4/1
f 5/5/2 8/6/2 7/7/2 6/8/2
f 1/9/3 5/10/3 6/11/3 2/12/3
f 2/13/4 6/14/4 7/15/4 3/16/4
f 3/17/5 7/18/5 8/19/5 4/20/5
f 5/21/6 1/22/6 4/23/6 8/24/6
