# Blender v2.77 (sub 0) OBJ File: 'sidewalk.blend'
# www.blender.org
mtllib sidewalk.mtl
o Cube
v 2.005350 -0.181615 -8.069539
v 2.005350 -0.181615 8.069539
v -2.005350 -0.181615 8.069537
v -2.005349 -0.181615 -8.069542
v 2.005351 0.181615 -8.069535
v 2.005349 0.181615 8.069544
v -2.005351 0.181615 8.069536
v -2.005350 0.181615 -8.069539
vt -1.2895 -0.7172
vt 1.9722 -0.7172
vt 1.9722 0.0934
vt -1.2895 0.0933
vt -1.2895 0.9039
vt -1.2895 0.0934
vt 1.9722 0.0934
vt 1.9722 0.9039
vt 1.9722 -0.7906
vt 1.9722 -0.7172
vt -1.2895 -0.7172
vt -1.2895 -0.7906
vt -0.4790 -0.9375
vt -0.4790 -0.8640
vt -1.2895 -0.8640
vt -1.2895 -0.9375
vt 1.9722 -0.8640
vt 1.9722 -0.7906
vt -1.2895 -0.7906
vt -1.2895 -0.8640
vt -0.4790 -0.8640
vt -0.4790 -0.9375
vt 0.3316 -0.9375
vt 0.3316 -0.8640
vn 0.0000 -1.0000 -0.0000
vn 0.0000 1.0000 -0.0000
vn 1.0000 0.0000 0.0000
vn -0.0000 -0.0000 1.0000
vn -1.0000 -0.0000 -0.0000
vn 0.0000 0.0000 -1.0000
usemtl Material2
s off
f 1/1/1 2/2/1 3/3/1 4/4/1
f 5/5/2 8/6/2 7/7/2 6/8/2
f 1/9/3 5/10/3 6/11/3 2/12/3
f 2/13/4 6/14/4 7/15/4 3/16/4
f 3/17/5 7/18/5 8/19/5 4/20/5
f 5/21/6 1/22/6 4/23/6 8/24/6
