# Blender v2.77 (sub 0) OBJ File: 'sidewalk.blend'
# www.blender.org
mtllib sidewalk.mtl
o Cube
v 2.005350 0.181615 16.139074
v 2.005349 0.181615 -16.139084
v -2.005351 -0.181615 -16.139071
v -2.005349 -0.181615 16.139088
v 2.005351 -0.181614 16.139072
v 2.005350 -0.181614 -16.139078
v -2.005350 0.062614 -16.139076
v -1.886350 0.181614 -16.139078
v -2.004383 0.075781 -16.139076
v -2.001754 0.088788 -16.139076
v -1.997677 0.101320 -16.139076
v -1.992238 0.113375 -16.139078
v -1.985588 0.124740 -16.139078
v -1.977802 0.135362 -16.139078
v -1.968961 0.145156 -16.139078
v -1.959159 0.154017 -16.139078
v -1.948489 0.161843 -16.139078
v -1.937090 0.168513 -16.139078
v -1.925043 0.173946 -16.139078
v -1.912486 0.178028 -16.139078
v -1.899551 0.180643 -16.139078
v -1.886350 0.181614 16.139078
v -2.005349 0.062614 16.139082
v -1.899517 0.180647 16.139078
v -1.912523 0.178019 16.139078
v -1.925056 0.173941 16.139078
v -1.937111 0.168502 16.139078
v -1.948475 0.161852 16.139078
v -1.959098 0.154067 16.139078
v -1.968892 0.145226 16.139080
v -1.977752 0.135423 16.139080
v -1.985578 0.124754 16.139080
v -1.992248 0.113355 16.139080
v -1.997681 0.101308 16.139080
v -2.001764 0.088750 16.139080
v -2.004378 0.075816 16.139082
vt -1.5090 -0.1150
vt -1.5090 -0.0633
vt -1.5092 -0.0605
vt -1.5097 -0.0578
vt -1.5106 -0.0551
vt -1.5117 -0.0526
vt -1.5131 -0.0502
vt -1.5148 -0.0479
vt -1.5167 -0.0459
vt -1.5187 -0.0440
vt -1.5210 -0.0423
vt -1.5234 -0.0409
vt -1.5259 -0.0398
vt -1.5286 -0.0389
vt -1.5313 -0.0384
vt -1.5341 -0.0382
vt -2.3575 -0.0382
vt -2.3575 -0.1150
vt 3.6228 0.9227
vt 3.6228 1.7713
vt -3.2060 1.7712
vt -3.2060 0.9227
vt -2.3826 -0.1150
vt -2.3799 -0.1148
vt -2.3771 -0.1142
vt -2.3744 -0.1134
vt -2.3719 -0.1122
vt -2.3695 -0.1108
vt -2.3672 -0.1092
vt -2.3652 -0.1073
vt -2.3633 -0.1052
vt -2.3616 -0.1030
vt -2.3602 -0.1006
vt -2.3591 -0.0980
vt -2.3582 -0.0954
vt -2.3577 -0.0926
vt -2.3575 -0.0898
vt -2.3575 -0.0382
vt -3.2060 -0.0382
vt -3.2060 -0.1150
vt 3.6228 0.0307
vt 3.6228 0.1075
vt -3.2060 0.1075
vt -3.2060 0.0307
vt 3.6228 0.9417
vt 3.6228 0.9917
vt -3.2060 0.9917
vt -3.2060 0.9417
vt -3.2060 0.9390
vt 3.6228 0.9390
vt -3.2060 0.9363
vt 3.6228 0.9363
vt -3.2060 0.9336
vt 3.6228 0.9336
vt -3.2060 0.9309
vt 3.6228 0.9309
vt -3.2060 0.9282
vt 3.6228 0.9282
vt -3.2060 0.9255
vt 3.6228 0.9255
vt -3.2060 0.9228
vt 3.6228 0.9228
vt -3.2060 0.9201
vt 3.6228 0.9201
vt -3.2060 0.9174
vt 3.6228 0.9174
vt -3.2060 0.9147
vt 3.6228 0.9147
vt -3.2060 0.9120
vt 3.6228 0.9120
vt -3.2060 0.9093
vt 3.6228 0.9093
vt -3.2060 0.9066
vt 3.6228 0.9066
vt -3.2060 0.9039
vt 3.6228 0.9039
vt -3.2060 0.1075
vt 3.6228 0.1075
vn -0.0000 -0.0000 -1.0000
vn 0.0000 -1.0000 -0.0000
vn 0.0000 0.0000 1.0000
vn 1.0000 0.0000 -0.0000
vn -1.0000 0.0000 0.0000
vn -0.9973 0.0733 0.0000
vn -0.9802 0.1981 -0.0000
vn -0.9510 0.3093 0.0000
vn -0.9116 0.4112 0.0000
vn -0.8631 0.5050 0.0000
vn -0.8065 0.5913 0.0000
vn -0.7421 0.6703 0.0000
vn -0.6703 0.7421 -0.0000
vn -0.5913 0.8065 -0.0000
vn -0.5050 0.8631 -0.0000
vn -0.4112 0.9116 0.0000
vn -0.3093 0.9510 -0.0000
vn -0.1981 0.9802 0.0000
vn -0.0733 0.9973 -0.0000
vn -0.0000 1.0000 0.0000
usemtl Material2
s off
f 3/1/1 7/2/1 9/3/1 10/4/1 11/5/1 12/6/1 13/7/1 14/8/1 15/9/1 16/10/1 17/11/1 18/12/1 19/13/1 20/14/1 21/15/1 8/16/1 2/17/1 6/18/1
f 3/19/2 6/20/2 5/21/2 4/22/2
f 22/23/3 24/24/3 25/25/3 26/26/3 27/27/3 28/28/3 29/29/3 30/30/3 31/31/3 32/32/3 33/33/3 34/34/3 35/35/3 36/36/3 23/37/3 4/38/3 5/39/3 1/40/3
f 1/41/4 5/42/4 6/43/4 2/44/4
f 7/45/5 3/46/5 4/47/5 23/48/5
f 7/45/6 23/48/6 36/49/6 9/50/6
f 9/50/7 36/49/7 35/51/7 10/52/7
f 10/52/8 35/51/8 34/53/8 11/54/8
f 11/54/9 34/53/9 33/55/9 12/56/9
f 12/56/10 33/55/10 32/57/10 13/58/10
f 13/58/11 32/57/11 31/59/11 14/60/11
f 14/60/12 31/59/12 30/61/12 15/62/12
f 15/62/13 30/61/13 29/63/13 16/64/13
f 16/64/14 29/63/14 28/65/14 17/66/14
f 17/66/15 28/65/15 27/67/15 18/68/15
f 18/68/16 27/67/16 26/69/16 19/70/16
f 19/70/17 26/69/17 25/71/17 20/72/17
f 20/72/18 25/71/18 24/73/18 21/74/18
f 21/74/19 24/73/19 22/75/19 8/76/19
f 8/76/20 22/75/20 1/77/20 2/78/20
