# Blender v2.77 (sub 0) OBJ File: 'wall.blend'
# www.blender.org
mtllib wall.mtl
o Cube
v -0.097528 -2.153854 -16.143345
v 0.097529 -2.153854 -16.143345
v 0.097528 -2.153854 16.143347
v -0.097529 -2.153854 16.143337
v -0.097528 9.889360 -16.143353
v 0.097529 9.889360 -16.143335
v 0.097528 9.889360 16.143351
v -0.097529 9.889360 16.143343
vt -3.0478 -1.2178
vt -3.0478 -1.2459
vt 1.7079 -1.2459
vt 1.7079 -1.2178
vt -3.0478 -1.2178
vt 1.7079 -1.2178
vt 1.7079 -1.1898
vt -3.0478 -1.1898
vt 0.5000 -1.2739
vt 4.0478 -1.2739
vt 4.0478 -1.2459
vt 0.5000 -1.2459
vt 1.7079 -1.1898
vt 1.7079 0.5421
vt -3.0478 0.5421
vt -3.0478 -1.1898
vt -3.0478 -1.2739
vt 0.5000 -1.2739
vt 0.5000 -1.2459
vt -3.0478 -1.2459
vt -3.0478 2.2739
vt -3.0478 0.5421
vt 1.7079 0.5421
vt 1.7079 2.2739
vn 0.0000 -1.0000 0.0000
vn 0.0000 1.0000 -0.0000
vn 0.0000 0.0000 -1.0000
vn 1.0000 -0.0000 0.0000
vn -0.0000 -0.0000 1.0000
vn -1.0000 0.0000 -0.0000
usemtl Material5
s off
f 1/1/1 2/2/1 3/3/1 4/4/1
f 5/5/2 8/6/2 7/7/2 6/8/2
f 1/9/3 5/10/3 6/11/3 2/12/3
f 2/13/4 6/14/4 7/15/4 3/16/4
f 3/17/5 7/18/5 8/19/5 4/20/5
f 5/21/6 1/22/6 4/23/6 8/24/6
