# Blender v2.77 (sub 0) OBJ File: ''
# www.blender.org
mtllib AIRCONDITION.mtl
o polySurface1_Untitled
v -0.472635 0.000000 1.560067
v 0.467266 0.000000 1.560067
v -0.472635 2.111893 1.560067
v 0.467266 2.111893 1.560067
v -0.476959 2.111893 -1.577397
v 0.471590 2.111893 -1.577397
v -0.476959 -0.000000 -1.577397
v 0.471590 -0.000000 -1.577397
v 0.477218 2.111893 -1.532655
v -0.482587 2.111893 -1.532655
v -0.482587 -0.000000 -1.532655
v 0.477218 -0.000000 -1.532655
v 0.477218 2.111893 1.516211
v -0.482587 2.111893 1.516211
v -0.482587 0.000000 1.516211
v 0.477218 0.000000 1.516211
v 0.447453 2.111893 1.581230
v 0.447453 2.144854 1.516211
v 0.447453 2.144854 -1.532655
v 0.447453 2.111893 -1.597674
v 0.447453 -0.000000 -1.597674
v 0.447453 -0.046770 -1.532655
v 0.447453 -0.046770 1.516211
v 0.447453 0.000000 1.581230
v -0.452822 2.111893 1.581230
v -0.452822 2.144854 1.516211
v -0.452822 2.144854 -1.532655
v -0.452822 2.111893 -1.597674
v -0.452822 -0.000000 -1.597674
v -0.452822 -0.046770 -1.532655
v -0.452822 -0.046770 1.516211
v -0.452822 0.000000 1.581230
v 0.464814 0.041616 -1.617749
v -0.470183 0.041616 -1.617749
v -0.495252 0.041616 -1.597217
v -0.501097 0.041616 -1.551910
v -0.501097 0.041617 1.535466
v -0.490760 0.041617 1.579877
v -0.470183 0.041617 1.601307
v 0.464814 0.041617 1.601307
v 0.485391 0.041617 1.579877
v 0.495726 0.041617 1.535466
v 0.495726 0.041616 -1.551910
v 0.489883 0.041616 -1.597217
v 0.464814 2.070279 -1.617749
v -0.470183 2.070279 -1.617749
v -0.495252 2.070279 -1.597217
v -0.501097 2.070279 -1.551910
v -0.501097 2.070279 1.535466
v -0.490760 2.070279 1.579876
v -0.470183 2.070279 1.601307
v 0.464814 2.070279 1.601307
v 0.485391 2.070279 1.579876
v 0.495726 2.070279 1.535466
v 0.495726 2.070279 -1.551910
v 0.489883 2.070279 -1.597217
v -0.387836 0.421157 -1.595874
v -0.408655 0.409092 -1.603391
v -0.435440 0.426832 -1.601321
v -0.441802 0.458631 -1.591093
v -0.420983 0.470696 -1.583575
v -0.396554 0.464717 -1.581861
v -0.382823 0.444197 -1.586955
v -0.483326 1.693052 -1.642255
v -0.498300 1.693052 -1.648458
v -0.513275 1.693052 -1.634170
v -0.513275 1.693052 -1.612306
v -0.498300 1.693052 -1.606105
v -0.483326 1.693052 -1.612306
v -0.477123 1.693052 -1.627280
v -0.422105 0.444952 -1.592837
v -0.405752 1.239109 -1.705953
v -0.398367 1.240775 -1.687675
v -0.405752 1.239109 -1.669399
v -0.423582 1.235087 -1.661828
v -0.441411 1.231066 -1.669399
v -0.441411 1.231066 -1.696083
v -0.423582 1.235087 -1.713522
v -0.352437 0.776075 -1.733030
v -0.344564 0.775643 -1.713994
v -0.352437 0.776075 -1.694959
v -0.371443 0.777122 -1.687073
v -0.390450 0.778170 -1.694959
v -0.390450 0.778170 -1.722749
v -0.371443 0.777122 -1.740913
v -0.402413 0.571404 -1.694261
v -0.382850 0.571404 -1.686156
v -0.374745 0.571404 -1.666591
v -0.382850 0.571404 -1.647027
v -0.402413 0.571404 -1.638922
v -0.421978 0.571404 -1.647027
v -0.421978 0.571404 -1.675592
v -0.357232 1.019407 -1.715099
v -0.349744 1.019407 -1.697020
v -0.357232 1.019407 -1.678941
v -0.375312 1.019407 -1.671453
v -0.393391 1.019407 -1.678941
v -0.393391 1.019407 -1.705336
v -0.375312 1.019407 -1.722588
v -0.484147 1.451461 -1.675774
v -0.476868 1.452988 -1.657817
v -0.484147 1.451461 -1.639862
v -0.501720 1.447775 -1.632424
v -0.519294 1.444086 -1.639862
v -0.519294 1.444086 -1.666077
v -0.501720 1.447775 -1.683213
v -0.453759 1.999419 -1.663940
v -0.468734 1.999419 -1.670143
v -0.483707 1.999419 -1.655853
v -0.483707 1.999419 -1.633990
v -0.468734 1.999419 -1.627789
v -0.453759 1.999419 -1.633990
v -0.447556 1.999419 -1.648965
v -0.445338 2.214702 -1.636900
v -0.467610 2.215726 -1.634928
v -0.476222 2.207580 -1.620721
v -0.477568 2.199704 -1.606792
v -0.473000 2.196002 -1.598343
v -0.449525 2.194565 -1.596155
v -0.434527 2.205531 -1.616772
v -0.478207 2.298955 -1.508454
v -0.500741 2.298628 -1.509822
v -0.508510 2.281948 -1.503021
v -0.508825 2.270506 -1.497708
v -0.505269 2.262165 -1.492821
v -0.483237 2.258458 -1.489571
v -0.466745 2.277585 -1.497697
v -0.454842 2.339435 -1.348398
v -0.478416 2.339994 -1.349760
v -0.486544 2.321675 -1.354175
v -0.486873 2.308710 -1.356652
v -0.483154 2.298642 -1.357598
v -0.460103 2.293507 -1.357103
v -0.442850 2.314714 -1.352320
v -0.427956 2.259901 -1.204700
v -0.451530 2.261238 -1.205316
v -0.459658 2.250835 -1.221030
v -0.459987 2.243037 -1.231677
v -0.456268 2.236310 -1.239227
v -0.433217 2.232216 -1.242365
v -0.415964 2.244477 -1.224414
v -0.312824 2.140948 -1.097793
v -0.336208 2.143728 -1.095951
v -0.346048 2.140050 -1.113581
v -0.347625 2.136569 -1.126219
v -0.344905 2.132765 -1.135926
v -0.322483 2.128772 -1.142191
v -0.303284 2.132885 -1.122578
vt 0.9558 0.5441
vt 0.9611 0.5441
vt 0.9561 0.5359
vt 0.9509 0.5359
vt 0.9401 0.5294
vt 0.9401 0.5359
vt 0.2102 0.5359
vt 0.2052 0.5359
vt 0.2003 0.5441
vt 0.2053 0.5441
vt 0.9509 0.9527
vt 0.9401 0.9527
vt 0.9401 0.9619
vt 0.9561 0.9527
vt 0.2165 0.5441
vt 0.2212 0.5359
vt 0.2104 0.5359
vt 0.2055 0.5441
vt 0.9449 0.5441
vt 0.2212 0.5294
vt 0.2212 0.5359
vt 0.2165 0.5441
vt 0.2102 0.9527
vt 0.2052 0.9527
vt 0.2212 0.9619
vt 0.2212 0.9527
vt 0.9449 0.5441
vt 0.9560 0.5441
vt 0.9511 0.5359
vt 0.9401 0.5359
vt 0.2212 0.5294
vt 0.2052 0.5359
vt 0.9401 0.5294
vt 0.9561 0.5359
vt 0.9611 0.5441
vt 0.9401 0.9619
vt 0.9561 0.9527
vt 0.9511 0.9527
vt 0.9401 0.9527
vt 0.2212 0.9527
vt 0.2212 0.9619
vt 0.2104 0.9527
vt 0.2052 0.9527
vt 0.2003 0.5441
vt 0.3359 0.5060
vt 0.3262 0.5060
vt 0.3262 0.2492
vt 0.3359 0.2492
vt 0.9316 0.2296
vt 0.9316 0.0256
vt 0.3469 0.0256
vt 0.3469 0.2296
vt 0.3262 0.2492
vt 0.3262 0.5060
vt 0.3359 0.5060
vt 0.3359 0.2492
vt 0.3481 0.5110
vt 0.3481 0.2442
vt 0.9570 0.2492
vt 0.9570 0.5060
vt 0.9707 0.5060
vt 0.9707 0.2492
vt 0.3469 0.2296
vt 0.3469 0.0256
vt 0.9316 0.0256
vt 0.9316 0.2296
vt 0.9707 0.2492
vt 0.9707 0.5060
vt 0.9570 0.5060
vt 0.9570 0.2492
vt 0.3481 0.2442
vt 0.3481 0.5110
vt 0.9447 0.2442
vt 0.9447 0.5110
vt 0.2003 0.9444
vt 0.2053 0.9444
vt 0.2165 0.9444
vt 0.9449 0.9444
vt 0.9558 0.9444
vt 0.9611 0.9444
vt 0.9447 0.2442
vt 0.9447 0.5110
vt 0.2055 0.9444
vt 0.2003 0.9444
vt 0.2165 0.9444
vt 0.9449 0.9444
vt 0.9560 0.9444
vt 0.9611 0.9444
vt 0.1644 0.0249
vt 0.1475 0.0210
vt 0.1410 0.1389
vt 0.1531 0.1383
vt 0.1282 0.0319
vt 0.1263 0.1343
vt 0.1119 0.0487
vt 0.1105 0.1289
vt 0.0962 0.0552
vt 0.0978 0.1290
vt 0.0798 0.0512
vt 0.0852 0.1323
vt 0.0660 0.0407
vt 0.0737 0.1377
vt 0.0519 0.0304
vt 0.0625 0.1428
vt 0.0923 0.0100
vt 0.0764 0.0184
vt 0.0992 0.0372
vt 0.1103 0.0243
vt 0.0713 0.0355
vt 0.0902 0.3800
vt 0.0846 0.3789
vt 0.0827 0.4259
vt 0.0872 0.4272
vt 0.0957 0.3813
vt 0.0919 0.4281
vt 0.1014 0.3824
vt 0.0966 0.4285
vt 0.1073 0.3829
vt 0.1011 0.4284
vt 0.1071 0.4281
vt 0.1151 0.3823
vt 0.1128 0.4282
vt 0.1223 0.3814
vt 0.1173 0.4289
vt 0.1278 0.3811
vt 0.0829 0.2505
vt 0.0733 0.2518
vt 0.0845 0.3228
vt 0.0912 0.3231
vt 0.0928 0.2489
vt 0.0979 0.3240
vt 0.1033 0.2477
vt 0.1048 0.3250
vt 0.1121 0.3257
vt 0.1142 0.2474
vt 0.1220 0.3251
vt 0.1284 0.2484
vt 0.1308 0.3239
vt 0.1411 0.2493
vt 0.1373 0.3232
vt 0.1510 0.2492
vt 0.0774 0.5004
vt 0.0828 0.5007
vt 0.0881 0.5007
vt 0.0933 0.5005
vt 0.0986 0.5002
vt 0.1056 0.5002
vt 0.1124 0.5004
vt 0.1177 0.5007
vt 0.1150 0.6107
vt 0.1206 0.6112
vt 0.1078 0.6102
vt 0.1001 0.6104
vt 0.0943 0.6110
vt 0.0886 0.6117
vt 0.0829 0.6121
vt 0.0773 0.6123
vt 0.1110 0.6727
vt 0.1162 0.6728
vt 0.1067 0.6719
vt 0.1028 0.6711
vt 0.1001 0.6710
vt 0.0938 0.6710
vt 0.0871 0.6722
vt 0.0815 0.6734
vt 0.1059 0.7019
vt 0.1088 0.7025
vt 0.1035 0.7010
vt 0.1019 0.7005
vt 0.1005 0.7003
vt 0.0973 0.7003
vt 0.0935 0.7015
vt 0.0902 0.7028
vt 0.1034 0.7197
vt 0.1051 0.7204
vt 0.1020 0.7189
vt 0.1010 0.7185
vt 0.1001 0.7184
vt 0.0980 0.7187
vt 0.0959 0.7198
vt 0.0940 0.7204
vt 0.1014 0.7287
vt 0.1023 0.7292
vt 0.1006 0.7282
vt 0.1000 0.7280
vt 0.0995 0.7280
vt 0.0984 0.7283
vt 0.0971 0.7288
vt 0.0960 0.7289
vt 0.1003 0.7379
vt 0.1010 0.7385
vt 0.0995 0.7375
vt 0.0990 0.7373
vt 0.0986 0.7373
vt 0.0978 0.7377
vt 0.0968 0.7382
vt 0.0957 0.7380
vn -0.8486 0.2706 0.4547
vn -0.3727 0.2720 0.8872
vn -0.3369 0.7176 0.6095
vn -0.7136 0.5996 0.3623
vn -0.3716 0.9064 0.2009
vn -0.8010 0.5860 0.1223
vn -0.7002 0.6175 -0.3585
vn -0.3040 0.7237 -0.6196
vn -0.3203 0.2668 -0.9090
vn -0.8447 0.2731 -0.4603
vn -0.7445 -0.5516 0.3761
vn -0.8469 -0.5147 0.1337
vn -0.4501 -0.8533 0.2630
vn -0.3654 -0.6588 0.6576
vn 0.9678 0.2266 0.1096
vn 0.8010 0.5860 0.1223
vn 0.7136 0.5996 0.3623
vn 0.8486 0.2706 0.4547
vn -0.9678 0.2266 0.1096
vn -0.3596 0.9125 -0.1953
vn -0.8011 0.5907 -0.0965
vn -0.9738 0.2187 -0.0619
vn -0.7326 -0.5694 -0.3730
vn -0.3338 -0.6659 -0.6672
vn -0.4387 -0.8610 -0.2575
vn -0.8473 -0.5198 -0.1087
vn 0.9738 0.2187 -0.0619
vn 0.8447 0.2731 -0.4603
vn 0.7002 0.6175 -0.3585
vn 0.8011 0.5907 -0.0965
vn 0.3715 0.9064 0.2009
vn 0.3369 0.7176 0.6095
vn 0.3596 0.9125 -0.1953
vn 0.3040 0.7237 -0.6196
vn 0.3203 0.2668 -0.9090
vn 0.4387 -0.8610 -0.2575
vn 0.3338 -0.6659 -0.6672
vn 0.7326 -0.5694 -0.3730
vn 0.8473 -0.5198 -0.1087
vn 0.8469 -0.5147 0.1337
vn 0.4501 -0.8533 0.2630
vn 0.7445 -0.5516 0.3761
vn 0.3654 -0.6588 0.6576
vn 0.3727 0.2720 0.8872
vn -0.3203 -0.2668 -0.9090
vn 0.3203 -0.2668 -0.9090
vn -0.8447 -0.2731 -0.4603
vn -0.9738 -0.2187 -0.0619
vn -0.9678 -0.2266 0.1096
vn -0.8486 -0.2706 0.4547
vn -0.3726 -0.2721 0.8872
vn 0.3726 -0.2721 0.8872
vn 0.8486 -0.2706 0.4547
vn 0.9678 -0.2266 0.1096
vn 0.9738 -0.2187 -0.0619
vn 0.8447 -0.2731 -0.4603
vn 0.5699 -0.6973 0.4347
vn -0.2223 -0.9542 0.2004
vn -0.1135 -0.3438 -0.9322
vn 0.7159 -0.3111 -0.6251
vn -0.7939 -0.4544 0.4041
vn -0.8797 -0.0733 -0.4699
vn -0.5733 -0.0503 0.8178
vn -0.8476 0.2822 0.4494
vn -0.1525 0.0815 0.9849
vn -0.0621 0.3696 0.9271
vn 0.2151 0.0175 0.9764
vn 0.6368 0.2273 0.7368
vn 0.5534 -0.2339 0.7994
vn 0.9953 -0.0636 0.0726
vn -0.1460 -0.3293 0.9329
vn 0.9596 0.2814 0.0017
vn 0.6652 0.2586 -0.7005
vn 0.6751 0.2165 -0.7052
vn 0.9843 0.1767 0.0003
vn 0.6939 0.1398 0.7064
vn 0.7063 0.0373 0.7070
vn 0.0179 -0.0850 0.9962
vn 0.0201 -0.1166 0.9930
vn -0.7864 -0.2816 0.5498
vn -0.8054 -0.2009 0.5576
vn -0.9134 -0.0980 -0.3952
vn -0.8910 -0.2267 -0.3933
vn -0.2000 0.1019 -0.9745
vn -0.1959 0.0314 -0.9801
vn 0.9981 -0.0621 0.0022
vn 0.7036 -0.0976 -0.7038
vn 0.6989 0.1239 -0.7044
vn 0.9929 0.1187 0.0006
vn 0.7085 0.0131 0.7056
vn 0.7045 0.0455 0.7083
vn 0.0044 0.0821 0.9966
vn 0.0021 -0.0541 0.9985
vn -0.8224 -0.1277 0.5545
vn -0.8290 0.1019 0.5499
vn -0.9149 -0.0854 -0.3946
vn -0.9186 0.0335 -0.3939
vn -0.1842 0.0352 -0.9823
vn -0.1900 -0.0597 -0.9800
vn 0.7062 -0.0114 -0.7079
vn 0.9989 -0.0472 -0.0005
vn 0.7102 -0.0499 0.7022
vn 0.0056 -0.0184 0.9998
vn -0.8305 0.0388 0.5557
vn -0.9188 0.0664 -0.3891
vn -0.1904 0.0445 -0.9807
vn -0.2880 0.0503 -0.9563
vn 0.6487 -0.0176 -0.7609
vn -0.9280 0.0714 -0.3657
vn -0.8714 0.0369 0.4891
vn -0.1402 -0.0404 0.9893
vn 0.6316 -0.0899 0.7700
vn 0.9968 -0.0783 0.0136
vn -0.4731 0.4103 -0.7796
vn 0.5906 0.4751 -0.6523
vn -0.9439 0.0745 -0.3217
vn -0.9652 -0.1939 0.1752
vn -0.4739 -0.5103 0.7177
vn 0.4897 -0.4698 0.7345
vn 0.9928 0.0066 0.1193
vn -0.5435 0.7576 -0.3615
vn 0.5098 0.7936 -0.3320
vn -0.9815 0.1538 -0.1142
vn -0.9709 -0.2314 0.0620
vn -0.6041 -0.7381 0.3004
vn 0.3616 -0.8506 0.3817
vn 0.9984 -0.0300 0.0482
vn -0.5633 0.8058 0.1830
vn 0.5484 0.8359 0.0231
vn -0.9710 0.1706 0.1674
vn -0.9724 -0.1907 0.1347
vn -0.6627 -0.7484 0.0253
vn 0.3496 -0.9219 -0.1669
vn 0.9836 -0.0729 -0.1648
vn -0.5245 0.5239 0.6711
vn 0.4881 0.7957 0.3585
vn -0.9205 -0.1556 0.3585
vn -0.8900 -0.4286 0.1556
vn -0.5917 -0.7707 -0.2363
vn 0.3196 -0.6713 -0.6687
vn 0.9197 0.2234 -0.3228
vn -0.4760 0.2925 0.8294
vn 0.4558 0.8023 0.3854
vn -0.8047 -0.4031 0.4359
vn -0.7731 -0.5937 0.2233
vn -0.5470 -0.8059 -0.2267
vn 0.2950 -0.4870 -0.8221
vn 0.8043 0.4287 -0.4115
usemtl Material.231
s 1
f 50/1/1 51/2/2 25/3/3
f 25/3/3 3/4/4 50/1/1
f 3/4/4 25/3/3 26/5/5
f 26/5/5 14/6/6 3/4/4
f 5/7/7 28/8/8 46/9/9
f 46/9/9 47/10/10 5/7/7
f 1/11/11 15/12/12 31/13/13
f 31/13/13 32/14/14 1/11/11
f 54/15/15 13/16/16 4/17/17
f 4/17/17 53/18/18 54/15/15
f 49/19/19 50/1/1 3/4/4
f 3/4/4 14/6/6 49/19/19
f 27/20/20 28/8/8 5/7/7
f 5/7/7 10/21/21 27/20/20
f 48/22/22 10/21/21 5/7/7
f 5/7/7 47/10/10 48/22/22
f 7/23/23 29/24/24 30/25/25
f 30/25/25 11/26/26 7/23/23
f 55/27/27 56/28/28 6/29/29
f 6/29/29 9/30/30 55/27/27
f 26/5/5 27/20/20 10/21/21
f 10/21/21 14/6/6 26/5/5
f 49/19/19 14/6/6 10/21/21
f 10/21/21 48/22/22 49/19/19
f 30/25/25 31/13/13 15/12/12
f 15/12/12 11/26/26 30/25/25
f 54/15/15 55/27/27 9/30/30
f 9/30/30 13/16/16 54/15/15
f 4/17/17 13/16/16 18/31/31
f 18/31/31 17/32/32 4/17/17
f 18/31/31 13/16/16 9/30/30
f 9/30/30 19/33/33 18/31/31
f 19/33/33 9/30/30 6/29/29
f 6/29/29 20/34/34 19/33/33
f 45/35/35 20/34/34 6/29/29
f 6/29/29 56/28/28 45/35/35
f 22/36/36 21/37/37 8/38/38
f 8/38/38 12/39/39 22/36/36
f 22/36/36 12/39/39 16/40/40
f 16/40/40 23/41/41 22/36/36
f 2/42/42 24/43/43 23/41/41
f 23/41/41 16/40/40 2/42/42
f 17/32/32 52/44/44 53/18/18
f 53/18/18 4/17/17 17/32/32
f 17/45/32 18/46/31 26/47/5
f 26/47/5 25/48/3 17/45/32
f 26/49/5 18/50/31 19/51/33
f 19/51/33 27/52/20 26/49/5
f 27/53/20 19/54/33 20/55/34
f 20/55/34 28/56/8 27/53/20
f 28/56/8 20/55/34 45/57/35
f 45/57/35 46/58/9 28/56/8
f 29/59/24 21/60/37 22/61/36
f 22/61/36 30/62/25 29/59/24
f 30/63/25 22/64/36 23/65/41
f 23/65/41 31/66/13 30/63/25
f 31/67/13 23/68/41 24/69/43
f 24/69/43 32/70/14 31/67/13
f 51/71/2 52/72/44 17/45/32
f 17/45/32 25/48/3 51/71/2
f 34/73/45 33/74/46 21/60/37
f 21/60/37 29/59/24 34/73/45
f 34/75/45 29/24/24 7/23/23
f 7/23/23 35/76/47 34/75/45
f 7/23/23 11/26/26 36/77/48
f 36/77/48 35/76/47 7/23/23
f 15/12/12 37/78/49 36/77/48
f 36/77/48 11/26/26 15/12/12
f 1/11/11 38/79/50 37/78/49
f 37/78/49 15/12/12 1/11/11
f 32/14/14 39/80/51 38/79/50
f 38/79/50 1/11/11 32/14/14
f 39/81/51 32/70/14 24/69/43
f 24/69/43 40/82/52 39/81/51
f 41/83/53 40/84/52 24/43/43
f 24/43/43 2/42/42 41/83/53
f 2/42/42 16/40/40 42/85/54
f 42/85/54 41/83/53 2/42/42
f 42/85/54 16/40/40 12/39/39
f 12/39/39 43/86/55 42/85/54
f 43/86/55 12/39/39 8/38/38
f 8/38/38 44/87/56 43/86/55
f 33/88/46 44/87/56 8/38/38
f 8/38/38 21/37/37 33/88/46
f 46/58/9 45/57/35 33/74/46
f 33/74/46 34/73/45 46/58/9
f 46/9/9 34/75/45 35/76/47
f 35/76/47 47/10/10 46/9/9
f 36/77/48 48/22/22 47/10/10
f 47/10/10 35/76/47 36/77/48
f 37/78/49 49/19/19 48/22/22
f 48/22/22 36/77/48 37/78/49
f 38/79/50 50/1/1 49/19/19
f 49/19/19 37/78/49 38/79/50
f 39/80/51 51/2/2 50/1/1
f 50/1/1 38/79/50 39/80/51
f 51/71/2 39/81/51 40/82/52
f 40/82/52 52/72/44 51/71/2
f 52/44/44 40/84/52 41/83/53
f 41/83/53 53/18/18 52/44/44
f 42/85/54 54/15/15 53/18/18
f 53/18/18 41/83/53 42/85/54
f 54/15/15 42/85/54 43/86/55
f 43/86/55 55/27/27 54/15/15
f 55/27/27 43/86/55 44/87/56
f 44/87/56 56/28/28 55/27/27
f 33/88/46 45/35/35 56/28/28
f 56/28/28 44/87/56 33/88/46
f 57/89/57 58/90/58 86/91/59
f 86/91/59 87/92/60 57/89/57
f 59/93/61 92/94/62 86/91/59
f 86/91/59 58/90/58 59/93/61
f 92/94/62 59/93/61 60/95/63
f 60/95/63 91/96/64 92/94/62
f 61/97/65 90/98/66 91/96/64
f 91/96/64 60/95/63 61/97/65
f 62/99/67 89/100/68 90/98/66
f 90/98/66 61/97/65 62/99/67
f 62/99/67 63/101/69 88/102/70
f 88/102/70 89/100/68 62/99/67
f 63/101/69 57/103/57 87/104/60
f 87/104/60 88/102/70 63/101/69
f 58/105/58 57/106/57 71/107/71
f 59/108/61 58/105/58 71/107/71
f 60/95/63 59/108/61 71/107/71
f 61/97/65 60/95/63 71/107/71
f 62/99/67 61/97/65 71/107/71
f 63/109/69 62/99/67 71/107/71
f 57/106/57 63/109/69 71/107/71
f 73/110/72 72/111/73 100/112/74
f 100/112/74 101/113/75 73/110/72
f 74/114/76 73/110/72 101/113/75
f 101/113/75 102/115/77 74/114/76
f 75/116/78 74/114/76 102/115/77
f 102/115/77 103/117/79 75/116/78
f 76/118/80 75/116/78 103/117/79
f 103/117/79 104/119/81 76/118/80
f 105/120/82 77/121/83 76/118/80
f 76/118/80 104/119/81 105/120/82
f 77/121/83 105/120/82 106/122/84
f 106/122/84 78/123/85 77/121/83
f 78/123/85 106/122/84 100/124/74
f 100/124/74 72/125/73 78/123/85
f 80/126/86 79/127/87 93/128/88
f 93/128/88 94/129/89 80/126/86
f 81/130/90 80/126/86 94/129/89
f 94/129/89 95/131/91 81/130/90
f 82/132/92 81/130/90 95/131/91
f 95/131/91 96/133/93 82/132/92
f 82/132/92 96/133/93 97/134/94
f 97/134/94 83/135/95 82/132/92
f 98/136/96 84/137/97 83/135/95
f 83/135/95 97/134/94 98/136/96
f 84/137/97 98/136/96 99/138/98
f 99/138/98 85/139/99 84/137/97
f 85/139/99 99/138/98 93/140/88
f 93/140/88 79/141/87 85/139/99
f 86/91/59 85/139/99 79/141/87
f 79/141/87 87/92/60 86/91/59
f 87/104/60 79/127/87 80/126/86
f 80/126/86 88/102/70 87/104/60
f 88/102/70 80/126/86 81/130/90
f 81/130/90 89/100/68 88/102/70
f 89/100/68 81/130/90 82/132/92
f 82/132/92 90/98/66 89/100/68
f 90/98/66 82/132/92 83/135/95
f 83/135/95 91/96/64 90/98/66
f 83/135/95 84/137/97 92/94/62
f 92/94/62 91/96/64 83/135/95
f 86/91/59 92/94/62 84/137/97
f 84/137/97 85/139/99 86/91/59
f 93/128/88 72/111/73 73/110/72
f 73/110/72 94/129/89 93/128/88
f 95/131/91 94/129/89 73/110/72
f 73/110/72 74/114/76 95/131/91
f 96/133/93 95/131/91 74/114/76
f 74/114/76 75/116/78 96/133/93
f 97/134/94 96/133/93 75/116/78
f 75/116/78 76/118/80 97/134/94
f 77/121/83 98/136/96 97/134/94
f 97/134/94 76/118/80 77/121/83
f 98/136/96 77/121/83 78/123/85
f 78/123/85 99/138/98 98/136/96
f 99/138/98 78/123/85 72/125/73
f 72/125/73 93/140/88 99/138/98
f 101/113/75 100/112/74 64/142/100
f 64/142/100 70/143/101 101/113/75
f 102/115/77 101/113/75 70/143/101
f 70/143/101 69/144/102 102/115/77
f 102/115/77 69/144/102 68/145/103
f 68/145/103 103/117/79 102/115/77
f 103/117/79 68/145/103 67/146/104
f 67/146/104 104/119/81 103/117/79
f 66/147/105 105/120/82 104/119/81
f 104/119/81 67/146/104 66/147/105
f 105/120/82 66/147/105 65/148/106
f 65/148/106 106/122/84 105/120/82
f 100/124/74 106/122/84 65/148/106
f 65/148/106 64/149/100 100/124/74
f 64/149/100 65/148/106 108/150/107
f 108/150/107 107/151/108 64/149/100
f 65/148/106 66/147/105 109/152/109
f 109/152/109 108/150/107 65/148/106
f 66/147/105 67/146/104 110/153/110
f 110/153/110 109/152/109 66/147/105
f 68/145/103 111/154/111 110/153/110
f 110/153/110 67/146/104 68/145/103
f 69/144/102 112/155/112 111/154/111
f 111/154/111 68/145/103 69/144/102
f 70/143/101 113/156/113 112/155/112
f 112/155/112 69/144/102 70/143/101
f 64/142/100 107/157/108 113/156/113
f 113/156/113 70/143/101 64/142/100
f 108/150/107 115/158/114 114/159/115
f 114/159/115 107/151/108 108/150/107
f 108/150/107 109/152/109 116/160/116
f 116/160/116 115/158/114 108/150/107
f 109/152/109 110/153/110 117/161/117
f 117/161/117 116/160/116 109/152/109
f 110/153/110 111/154/111 118/162/118
f 118/162/118 117/161/117 110/153/110
f 111/154/111 112/155/112 119/163/119
f 119/163/119 118/162/118 111/154/111
f 113/156/113 120/164/120 119/163/119
f 119/163/119 112/155/112 113/156/113
f 107/157/108 114/165/115 120/164/120
f 120/164/120 113/156/113 107/157/108
f 115/158/114 122/166/121 121/167/122
f 121/167/122 114/159/115 115/158/114
f 116/160/116 123/168/123 122/166/121
f 122/166/121 115/158/114 116/160/116
f 123/168/123 116/160/116 117/161/117
f 117/161/117 124/169/124 123/168/123
f 118/162/118 125/170/125 124/169/124
f 124/169/124 117/161/117 118/162/118
f 118/162/118 119/163/119 126/171/126
f 126/171/126 125/170/125 118/162/118
f 119/163/119 120/164/120 127/172/127
f 127/172/127 126/171/126 119/163/119
f 120/164/120 114/165/115 121/173/122
f 121/173/122 127/172/127 120/164/120
f 121/167/122 122/166/121 129/174/128
f 129/174/128 128/175/129 121/167/122
f 122/166/121 123/168/123 130/176/130
f 130/176/130 129/174/128 122/166/121
f 123/168/123 124/169/124 131/177/131
f 131/177/131 130/176/130 123/168/123
f 125/170/125 132/178/132 131/177/131
f 131/177/131 124/169/124 125/170/125
f 126/171/126 133/179/133 132/178/132
f 132/178/132 125/170/125 126/171/126
f 127/172/127 134/180/134 133/179/133
f 133/179/133 126/171/126 127/172/127
f 121/173/122 128/181/129 134/180/134
f 134/180/134 127/172/127 121/173/122
f 128/175/129 129/174/128 136/182/135
f 136/182/135 135/183/136 128/175/129
f 129/174/128 130/176/130 137/184/137
f 137/184/137 136/182/135 129/174/128
f 130/176/130 131/177/131 138/185/138
f 138/185/138 137/184/137 130/176/130
f 132/178/132 139/186/139 138/185/138
f 138/185/138 131/177/131 132/178/132
f 133/179/133 140/187/140 139/186/139
f 139/186/139 132/178/132 133/179/133
f 134/180/134 141/188/141 140/187/140
f 140/187/140 133/179/133 134/180/134
f 134/180/134 128/181/129 135/189/136
f 135/189/136 141/188/141 134/180/134
f 135/183/136 136/182/135 143/190/142
f 143/190/142 142/191/143 135/183/136
f 136/182/135 137/184/137 144/192/144
f 144/192/144 143/190/142 136/182/135
f 137/184/137 138/185/138 145/193/145
f 145/193/145 144/192/144 137/184/137
f 139/186/139 146/194/146 145/193/145
f 145/193/145 138/185/138 139/186/139
f 140/187/140 147/195/147 146/194/146
f 146/194/146 139/186/139 140/187/140
f 141/188/141 148/196/148 147/195/147
f 147/195/147 140/187/140 141/188/141
f 141/188/141 135/189/136 142/197/143
f 142/197/143 148/196/148 141/188/141
